<?xml version="1.0" encoding="UTF-8"?>
<svg width="762px" height="322px" viewBox="0 0 762 322" version="1.1" xmlns="http://www.w3.org/2000/svg" xmlns:xlink="http://www.w3.org/1999/xlink">
    <!-- Generator: Sketch 49.3 (51167) - http://www.bohemiancoding.com/sketch -->
    <title>Group 12 Copy 2</title>
    <desc>Created with Sketch.</desc>
    <defs></defs>
    <g id="Page-1" stroke="none" stroke-width="1" fill="none" fill-rule="evenodd">
        <g id="Group-12-Copy-2" transform="translate(-1.000000, 0.000000)">
            <g id="Page-1">
                <path d="M83.7705346,67.1247707 L178.11408,67.1247707 C189.471852,67.1247707 198.680857,76.3296488 198.680857,87.6823317 C198.680857,99.0350146 189.471852,108.236283 178.11408,108.236283 L127.345378,108.236283 C114.990866,108.236283 104.976525,118.246137 104.976525,130.591502 C104.976525,142.9116 114.94753,152.907015 127.273151,152.946722 L312.655833,153.517063 L315.916904,206.677941 L25.9307621,205.096868 C12.1822597,205.021063 0.997833175,216.139112 0.997833175,229.881454 C0.997833175,243.569649 12.1028095,254.662429 25.7971412,254.662429 L89.899037,254.662429 C103.694487,254.662429 114.882525,265.845454 114.882525,279.634722 L114.882525,318.2916 L672.085094,317.576868 L672.085094,290.47482 C672.085094,275.115307 659.680023,262.63638 644.310013,262.542527 L559.034629,262.019112 L559.034629,195.725941 L736.977881,195.725941 C750.943065,195.725941 762.264724,184.405746 762.264724,170.44682 C762.264724,156.487893 750.943065,145.171307 736.977881,145.171307 L653.125378,145.171307 C653.125378,123.444185 635.505482,105.828576 613.76862,105.828576 L560.255274,105.828576 L560.255274,67.1175512 L709.444762,67.1247707 C720.979492,67.1247707 730.325729,57.7791122 730.325729,46.253161 C730.325729,34.7272098 720.979492,25.3815512 709.444762,25.3815512 L83.7705346,25.3815512 C72.2394161,25.3815512 62.8931791,34.7272098 62.8931791,46.253161 C62.8931791,57.7791122 72.2394161,67.1247707 83.7705346,67.1247707 Z" id="Fill-1" fill="#D8ECF9"></path>
                <polygon id="Rectangle-11" fill="#FFFFFF" points="479 286 481.98113 286 493.528114 318 479 318"></polygon>
                <path d="M428.5,28 L502.5,28 C503.880712,28 505,26.8807119 505,25.5 L505,25.5 C505,24.1192881 503.880712,23 502.5,23 L428.5,23 C427.119288,23 426,24.1192881 426,25.5 L426,25.5 C426,26.8807119 427.119288,28 428.5,28 Z" id="Fill-20" fill="#273444"></path>
                <path d="M161.5,28 L235.5,28 C236.880712,28 238,26.8807119 238,25.5 L238,25.5 C238,24.1192881 236.880712,23 235.5,23 L161.5,23 C160.119288,23 159,24.1192881 159,25.5 L159,25.5 C159,26.8807119 160.119288,28 161.5,28 Z" id="Fill-22" fill="#273444"></path>
                <path d="M266.5,5 L408.5,5 C409.880712,5 411,3.88071187 411,2.5 L411,2.5 C411,1.11928813 409.880712,-2.53632657e-16 408.5,0 L266.5,-4.4408921e-16 C265.119288,-1.90456553e-16 264,1.11928813 264,2.5 L264,2.5 C264,3.88071187 265.119288,5 266.5,5 Z" id="Fill-23" fill="#273444"></path>
                <path d="M25.5,160 L112.5,160 C113.880712,160 115,158.880712 115,157.5 L115,157.5 C115,156.119288 113.880712,155 112.5,155 L25.5,155 C24.1192881,155 23,156.119288 23,157.5 L23,157.5 C23,158.880712 24.1192881,160 25.5,160 Z" id="Fill-24" fill="#273444"></path>
                <path d="M645.5,219 L709.5,219 C710.880712,219 712,217.880712 712,216.5 L712,216.5 C712,215.119288 710.880712,214 709.5,214 L645.5,214 C644.119288,214 643,215.119288 643,216.5 L643,216.5 C643,217.880712 644.119288,219 645.5,219 Z" id="Fill-25" fill="#273444"></path>
                <path d="M152,311 C147.0369,311 143,306.71566 143,301.453161 L143,189 L148.535055,189 L148.535055,301.453161 C148.535055,303.479908 150.088561,305.131041 152,305.131041 L152,311 Z" id="Fill-47" fill="#273444"></path>
                <path d="M393,298 L387.593324,298 L387.593324,137.795137 C387.593324,135.927973 386.072246,134.406847 384.20514,134.406847 L251.966065,134.406847 L251.966065,129 L384.20514,129 C389.053126,129 393,132.943393 393,137.795137 L393,298 Z" id="Fill-48" fill="#273444"></path>
                <polygon id="Fill-49" fill="#FFFFFF" points="157 288 377 288 377 145 157 145"></polygon>
                <path d="M387.306899,317 L147.315962,317 C141.558001,317 136.642228,312.887384 135.713292,307.277976 L134,297 L245.230211,297 L249.488138,303.022808 L280.222564,303.022808 L284.820258,297 L402,297 L400.51081,305.941554 C399.45175,312.320741 393.860058,317 387.306899,317" id="Fill-50" fill="#FFFFFF"></path>
                <path d="M136,301 L137.193576,308.832685 C137.911163,313.564202 141.657765,317 146.103924,317 L385.522202,317 C390.761674,317 395.182592,312.953307 396.026389,307.373541 L397,301 L284.63081,301 L280.040412,307.575875 L246.620296,307.575875 L242.372465,301 L136,301 Z M386.136869,322 L146.487933,322 C139.373722,322 133.374829,316.643279 132.227026,309.25928 L130,295 L245.675414,295 L249.927337,301.415917 L277.853594,301.415917 L282.448414,295 L404,295 L401.996759,307.83563 C400.715407,316.043448 394.048767,322 386.136869,322 Z" id="Fill-51" fill="#273444"></path>
                <polygon id="Fill-52" fill="#D2E9F7" points="186 163.584 211 163.584 211 160 186 160"></polygon>
                <polygon id="Fill-53" fill="#D2E9F7" points="199 174.584 216 174.584 216 171 199 171"></polygon>
                <polygon id="Fill-54" fill="#D2E9F7" points="253 174.584 372 174.584 372 171 253 171"></polygon>
                <polygon id="Fill-55" fill="#D2E9F7" points="227 174.584 246 174.584 246 171 227 171"></polygon>
                <polygon id="Fill-56" fill="#D2E9F7" points="204 183.584 238 183.584 238 180 204 180"></polygon>
                <polygon id="Fill-57" fill="#D2E9F7" points="218 196.584 261 196.584 261 193 218 193"></polygon>
                <polygon id="Fill-58" fill="#D2E9F7" points="186 208.584 233 208.584 233 205 186 205"></polygon>
                <polygon id="Fill-59" fill="#D2E9F7" points="238 208.584 272 208.584 272 205 238 205"></polygon>
                <polygon id="Fill-60" fill="#D2E9F7" points="199 220.584 262 220.584 262 217 199 217"></polygon>
                <polygon id="Fill-61" fill="#D2E9F7" points="287 220.584 329 220.584 329 217 287 217"></polygon>
                <polygon id="Fill-62" fill="#D2E9F7" points="264 220.584 284 220.584 284 217 264 217"></polygon>
                <polygon id="Fill-63" fill="#D2E9F7" points="220 233.584 275 233.584 275 230 220 230"></polygon>
                <polygon id="Fill-64" fill="#D2E9F7" points="204 233.584 216 233.584 216 230 204 230"></polygon>
                <polygon id="Fill-65" fill="#D2E9F7" points="186 242.584 224 242.584 224 239 186 239"></polygon>
                <polygon id="Fill-66" fill="#D2E9F7" points="227 242.584 240 242.584 240 239 227 239"></polygon>
                <polygon id="Fill-67" fill="#D2E9F7" points="243 242.584 305 242.584 305 239 243 239"></polygon>
                <polygon id="Fill-68" fill="#D2E9F7" points="310 242.584 366 242.584 366 239 310 239"></polygon>
                <polygon id="Fill-69" fill="#D2E9F7" points="199 254.584 219 254.584 219 251 199 251"></polygon>
                <polygon id="Fill-70" fill="#D2E9F7" points="224 254.584 270 254.584 270 251 224 251"></polygon>
                <polygon id="Fill-71" fill="#D2E9F7" points="209 266.584 247 266.584 247 263 209 263"></polygon>
                <polygon id="Fill-72" fill="#D2E9F7" points="255 266.584 293 266.584 293 263 255 263"></polygon>
                <polygon id="Fill-73" fill="#D2E9F7" points="298 266.584 333 266.584 333 263 298 263"></polygon>
                <polygon id="Fill-74" fill="#D2E9F7" points="358 196.584 369 196.584 369 193 358 193"></polygon>
                <polygon id="Fill-75" fill="#D2E9F7" points="265 196.584 353 196.584 353 193 265 193"></polygon>
                <polygon id="Fill-76" fill="#D2E9F7" points="218 163.584 318 163.584 318 160 218 160"></polygon>
                <polygon id="Fill-77" fill="#D2E9F7" points="170 160 175 160 175 155 170 155"></polygon>
                <polygon id="Fill-78" fill="#D2E9F7" points="170 173 175 173 175 168 170 168"></polygon>
                <polygon id="Fill-79" fill="#D2E9F7" points="170 187 175 187 175 182 170 182"></polygon>
                <polygon id="Fill-80" fill="#9ECFEF" points="170 201 175 201 175 196 170 196"></polygon>
                <polygon id="Fill-81" fill="#9ECFEF" points="170 215 175 215 175 210 170 210"></polygon>
                <polygon id="Fill-82" fill="#9ECFEF" points="170 228 175 228 175 223 170 223"></polygon>
                <polygon id="Fill-83" fill="#9ECFEF" points="170 242 175 242 175 237 170 237"></polygon>
                <path d="M589,235 L281,235 L281,59.1267756 C281,55.1879143 284.195006,52 288.134549,52 L581.865451,52 C585.804994,52 589,55.1879143 589,59.1267756 L589,235 Z" id="Fill-31" fill="#D8ECF9"></path>
                <path d="M588,237 L278,237 L278,67.4224726 C278,57.2638154 286.272148,49 296.441048,49 L312.040573,49 L312.040573,54.403541 L296.441048,54.403541 C289.254304,54.403541 283.408989,60.2429677 283.408989,67.4224726 L283.408989,231.596459 L588,231.596459 L588,237 Z" id="Fill-34" fill="#273444"></path>
                <path d="M588,237 L278,237 L278,67.4224726 C278,57.2638154 286.272148,49 296.441048,49 L558.771806,49 L558.771806,54.403541 L296.441048,54.403541 C289.254304,54.403541 283.408989,60.2429677 283.408989,67.4224726 L283.408989,231.596459 L588,231.596459 L588,237 Z" id="Fill-34" fill="#273444" transform="translate(433.000000, 143.000000) scale(-1, 1) translate(-433.000000, -143.000000) "></path>
                <polygon id="Fill-35" fill="#FFFFFF" points="297 215 572 215 572 70 297 70"></polygon>
                <polygon id="Fill-36" fill="#FFFFFF" points="388 318 481 318 481 263 388 263"></polygon>
                <polygon id="Fill-37" fill="#D2E9F7" points="388 286 481 286 481 259 388 259"></polygon>
                <path d="M589,228 L281,228 L281,249.603962 C281,260.869407 290.042878,270 301.196484,270 L568.803516,270 C579.957122,270 589,260.869407 589,249.603962 L589,228 Z" id="Fill-39" fill="#FFFFFF"></path>
                <path d="M579,273 L297.170959,273 C286.601165,273 278,264.618111 278,254.314167 L278,226 L579,226 L579,231.419325 L283.561098,231.419325 L283.561098,254.314167 C283.561098,261.630256 289.667184,267.580675 297.170959,267.580675 L579,267.580675 L579,273 Z" id="Fill-40" fill="#273444"></path>
                <polygon id="Fill-41" fill="#9ECFEF" points="317 131 554 131 554 80 317 80"></polygon>
                <polygon id="Fill-42" fill="#D2E9F7" points="404 205 467 205 467 139 404 139"></polygon>
                <polygon id="Fill-42-Copy" fill="#D2E9F7" points="317 205 380 205 380 139 317 139"></polygon>
                <polygon id="Fill-43" fill="#D2E9F7" points="491 205 554 205 554 139 491 139"></polygon>
                <polygon id="Fill-84" fill="#9ECFEF" points="170 256 175 256 175 251 170 251"></polygon>
                <polygon id="Fill-85" fill="#9ECFEF" points="170 269 175 269 175 264 170 264"></polygon>
                <polygon id="Fill-86" fill="#9ECFEF" points="170 283 175 283 175 278 170 278"></polygon>
                <path d="M233.268062,189 L142.728322,189 C133.487434,189 126,181.49668 126,172.240655 L126,115.759345 C126,106.50332 133.487434,99 142.728322,99 L233.268062,99 C242.508951,99 250,106.50332 250,115.759345 L250,172.240655 C250,181.49668 242.508951,189 233.268062,189" id="Fill-88" fill="#FFFFFF"></path>
                <path d="M126,118 L126,105.161193 C126,101.757833 128.783836,99 132.214823,99 L243.785177,99 C247.216164,99 250,101.757833 250,105.161193 L250,118 L126,118 Z" id="Fill-89" fill="#D2E9F7"></path>
                <path d="M131.897173,191 C126.989133,191 123,187.009373 123,182.099495 L123,104.900505 C123,99.9942322 126.989133,96 131.897173,96 L148.304151,96 L148.304151,101.407354 L131.897173,101.407354 C129.969272,101.407354 128.40533,102.975487 128.40533,104.900505 L128.40533,182.099495 C128.40533,184.024513 129.969272,185.592646 131.897173,185.592646 L243.102827,185.592646 C245.027124,185.592646 246.59467,184.024513 246.59467,182.099495 L246.59467,104.900505 C246.59467,102.975487 245.027124,101.407354 243.102827,101.407354 L148.304151,101.407354 L148.304151,96 L243.102827,96 C248.007263,96 252,99.9942322 252,104.900505 L252,182.099495 C252,187.009373 248.007263,191 243.102827,191 L131.897173,191 Z" id="Fill-90" fill="#273444"></path>
                <polygon id="Fill-92" fill="#273444" points="126 120 250 120 250 115 126 115"></polygon>
                <polygon id="Fill-93" fill="#9ECFEF" points="136 111 138.372 111 138.372 106 136 106"></polygon>
                <polygon id="Fill-94" fill="#9ECFEF" points="144 111 146.372 111 146.372 106 144 106"></polygon>
                <polygon id="Fill-95" fill="#9ECFEF" points="152 111 154.372 111 154.372 106 152 106"></polygon>
                <polygon id="Fill-96" fill="#273444" points="164 149.84179 164 146.15821 177 140 177 143.953025 168.410903 147.930866 177 152.022158 177 156"></polygon>
                <polygon id="Fill-97" fill="#273444" points="191.204182 137 195 137 183.771147 162 180 162"></polygon>
                <polygon id="Fill-98" fill="#273444" points="211 146.15821 211 149.84179 198 156 198 152.022158 206.585571 147.930866 198 143.953025 198 140"></polygon>
                <path d="M582.394513,317 L592.609053,317 C593.375857,317 594,316.368084 594,315.588119 L594,166.614847 C594,166.409023 593.957202,166.210421 593.875171,166.022651 L588.764335,154.81788 C588.265021,153.727373 586.734979,153.727373 586.235665,154.81788 L581.128395,166.022651 C581.042798,166.210421 581,166.409023 581,166.614847 L581,315.588119 C581,316.368084 581.624143,317 582.394513,317" id="Fill-99" fill="#FFFFFF"></path>
                <polygon id="Fill-100" fill="#D8ECF9" points="581 303 594 303 594 172 581 172"></polygon>
                <polygon id="Fill-101" fill="#9ECFEF" points="581 303 588 303 588 172 581 172"></polygon>
                <path d="M583.538282,314.590153 L591.461718,314.590153 L591.461718,167.377409 L587.496308,158.995753 L583.538282,167.377409 L583.538282,314.590153 Z M597,320 L578,320 L578,166.190849 L584.206568,153.055742 C584.793626,151.80787 586.085892,151 587.496308,151 C588.906724,151 590.202682,151.80787 590.793432,153.059348 L597,166.187243 L597,320 Z" id="Fill-102" fill="#273444"></path>
                <polygon id="Fill-103" fill="#273444" points="581 174 595 174 595 169 581 169"></polygon>
                <polygon id="Fill-104" fill="#0686D8" points="580 305 595 305 595 300 580 300"></polygon>
                <path d="M606,162.971617 C606,156.273597 613.407828,151.416172 615.599793,147.520792 C620.01266,139.686469 620.001809,126 620.001809,126 C631.970805,128.2 634,153.013531 634,162.971617 C634,172.929703 627.735176,181 620.001809,181 C612.268441,181 606,172.929703 606,162.971617" id="Fill-105" fill="#9ECFEF"></path>
                <path d="M619.500092,206 C625.600481,206 630.415455,211.968471 629.971597,218.980431 L624.8619,299.383281 C624.457102,305.785035 622.724279,311.980979 619.812569,317.451175 L619.521398,318 C616.165829,312.183178 614.177344,305.460073 613.765444,298.48783 L609.025037,218.926271 C608.609586,211.935975 613.417459,206 619.500092,206" id="Fill-106" fill="#FFFFFF"></path>
                <path d="M622.014286,130.338592 C621.675,135.226144 620.639286,143.454372 617.482143,149.126258 C616.635714,150.658611 615.278571,152.151021 613.842857,153.730579 C611.267857,156.562891 608.357143,159.769212 608.357143,163.244241 C608.357143,171.683076 613.353571,178.553247 619.5,178.553247 C625.646429,178.553247 630.642857,171.683076 630.642857,163.244241 C630.642857,153.447348 628.757143,135.607417 622.014286,130.338592 M619.5,184 C610.4,184 603,174.686053 603,163.244241 C603,157.641348 606.828571,153.42193 609.903571,150.037681 C611.125,148.694148 612.275,147.426871 612.821429,146.446455 C616.775,139.340258 616.821429,126.395143 616.821429,126.264421 L616.821429,123 L619.982143,123.584618 C635.228571,126.424192 636,157.118459 636,163.244241 C636,174.686053 628.6,184 619.5,184" id="Fill-107" fill="#273444"></path>
                <path d="M620.501197,209.294948 C618.516415,209.294948 616.608112,210.156473 615.125899,211.71663 C613.272222,213.67859 612.307144,216.469497 612.485593,219.372619 L617.347397,299.139706 C617.616891,303.584886 618.589251,307.950429 620.195286,312.001045 C621.757619,307.537766 623.086876,302.893494 623.27625,300.02657 L628.516802,219.416058 C628.706175,216.505695 627.74474,213.700309 625.887421,211.727489 C624.401566,210.160093 622.493262,209.294948 620.501197,209.294948 M620.461137,321 C619.306686,321 618.225071,320.373765 617.667876,319.363826 C614.32106,313.398308 612.321712,306.513347 611.891979,299.469113 L607.030174,219.702026 C606.764323,215.311144 608.264745,211.043337 611.152693,207.99542 C616.20023,202.659757 624.824015,202.670616 629.86791,208.01352 C632.7595,211.079535 634.252638,215.361822 633.964936,219.767183 L628.724384,300.377696 C628.356562,306.024667 624.882284,315.291491 623.403713,319.01632 C622.959413,320.142095 621.885082,320.916743 620.661436,320.99276 C620.595884,321 620.530332,321 620.461137,321" id="Fill-108" fill="#273444"></path>
                <polygon id="Fill-109" fill="#9ECFEF" points="609 219 630 219 630 176 609 176"></polygon>
                <polygon id="Fill-110" fill="#D2E9F7" points="609 219 620 219 620 176 609 176"></polygon>
                <path d="M612.436971,216.536128 L628.563029,216.536128 L628.563029,178.463872 L612.436971,178.463872 L612.436971,216.536128 Z M607,222 L634,222 L634,173 L607,173 L607,222 Z" id="Fill-111" fill="#273444"></path>
                <path d="M677,311.96506 L677,282.031356 C677,279.254076 674.732641,277 671.938996,277 L499.068214,277 C496.270963,277 494,279.254076 494,282.031356 L494,311.96506 C494,314.745924 496.267359,317 499.068214,317 L671.938996,317 C674.732641,317 677,314.745924 677,311.96506" id="Fill-122" fill="#D2E9F7"></path>
                <path d="M494,282.058 L494,295 L677,295 L677,282.058 C677,279.2644 674.732641,277 671.935391,277 L499.064609,277 C496.270963,277 494,279.2644 494,282.058" id="Fill-123" fill="#EDF6FC"></path>
                <path d="M498.792733,280.449376 C497.487315,280.449376 496.424176,281.517454 496.424176,282.828937 L496.424176,313.171063 C496.424176,314.482546 497.487315,315.550624 498.792733,315.550624 L672.210883,315.550624 C673.512685,315.550624 674.575824,314.482546 674.575824,313.171063 L674.575824,282.828937 C674.575824,281.517454 673.512685,280.449376 672.210883,280.449376 L498.792733,280.449376 Z M672.210883,321 L498.792733,321 C494.496786,321 491,317.486969 491,313.171063 L491,282.828937 C491,278.513031 494.496786,275 498.792733,275 L672.210883,275 C676.50683,275 680,278.513031 680,282.828937 L680,313.171063 C680,317.486969 676.50683,321 672.210883,321 Z" id="Fill-124" fill="#273444"></path>
                <polygon id="Fill-125" fill="#273444" points="512 302 517 302 517 277 512 277"></polygon>
                <polygon id="Fill-126" fill="#273444" points="529 289 534 289 534 277 529 277"></polygon>
                <polygon id="Fill-127" fill="#273444" points="546 289 551 289 551 277 546 277"></polygon>
                <polygon id="Fill-128" fill="#273444" points="564 289 569 289 569 277 564 277"></polygon>
                <polygon id="Fill-129" fill="#273444" points="581 302 586 302 586 277 581 277"></polygon>
                <polygon id="Fill-130" fill="#273444" points="598 289 603 289 603 277 598 277"></polygon>
                <polygon id="Fill-131" fill="#273444" points="616 289 621 289 621 277 616 277"></polygon>
                <polygon id="Fill-132" fill="#273444" points="633 289 638 289 638 277 633 277"></polygon>
                <polygon id="Fill-133" fill="#273444" points="650 302 655 302 655 277 650 277"></polygon>
                <path d="M37,322 L741,322 C742.656854,322 744,320.656854 744,319 L744,319 C744,317.343146 742.656854,316 741,316 L37,316 C35.3431458,316 34,317.343146 34,319 L34,319 C34,320.656854 35.3431458,322 37,322 Z" id="Fill-136" fill="#273444"></path>
                <path d="M479.653799,270.896271 L484.649626,271.100505 C483.407165,301.49275 491.102187,315.928014 507.435075,315.928014 L507.435075,320.928014 C487.471528,320.928014 478.310975,303.743528 479.653799,270.896271 Z" id="Path-2" fill="#273444" fill-rule="nonzero"></path>
                <path d="M363.63101,270.897883 L368.626837,271.102117 C367.384376,301.494362 375.079398,315.929626 391.412286,315.929626 L391.412286,320.929626 C371.448739,320.929626 362.288186,303.74514 363.63101,270.897883 Z" id="Path-2" fill="#273444" fill-rule="nonzero" transform="translate(377.457309, 295.913755) scale(-1, 1) translate(-377.457309, -295.913755) "></path>
            </g>
            <circle id="Oval-7" fill="#D2E9F7" cx="435.5" cy="250.5" r="10.5"></circle>
        </g>
    </g>
</svg>