<?xml version="1.0" encoding="UTF-8"?>
<svg width="18px" height="16px" viewBox="0 0 18 16" version="1.1" xmlns="http://www.w3.org/2000/svg" xmlns:xlink="http://www.w3.org/1999/xlink">
    <!-- Generator: Sketch 49.3 (51167) - http://www.bohemiancoding.com/sketch -->
    <title>download - anticon</title>
    <desc>Created with Sketch.</desc>
    <defs></defs>
    <g id="Page-1" stroke="none" stroke-width="1" fill="none" fill-rule="evenodd">
        <g id="Desktop-HD" transform="translate(-271.000000, -2524.000000)" fill="#DC6F6F" stroke="#DC6F6F">
            <path d="M279.588233,2533.6957 L276.802905,2530.91037 C276.683873,2530.79134 276.624358,2530.6485 276.624358,2530.48186 C276.624358,2530.31521 276.683873,2530.1694 276.802905,2530.04442 C276.921937,2529.91943 277.064773,2529.85694 277.231417,2529.85694 C277.398061,2529.85694 277.546849,2529.91646 277.677784,2530.03549 L279.409686,2531.76739 L279.409686,2525.62491 C279.409686,2525.44637 279.469201,2525.29758 279.588233,2525.17855 C279.707264,2525.05951 279.8501,2525 280.016745,2525 C280.183389,2525 280.329201,2525.05951 280.454184,2525.17855 C280.579167,2525.29758 280.641658,2525.44637 280.641658,2525.62491 L280.641658,2531.76739 L282.37356,2530.05334 C282.492592,2529.92241 282.635428,2529.85694 282.802072,2529.85694 C282.968717,2529.85694 283.114528,2529.91943 283.239512,2530.04442 C283.364495,2530.1694 283.426986,2530.31521 283.426986,2530.48186 C283.426986,2530.6485 283.361519,2530.79134 283.230584,2530.91037 L280.445257,2533.6957 C280.326225,2533.81473 280.183389,2533.87424 280.016745,2533.87424 C279.8501,2533.87424 279.707264,2533.81473 279.588233,2533.6957 Z M287.819233,2533.93291 C287.938265,2534.05194 287.99778,2534.19478 287.99778,2534.36142 L287.99778,2538.34301 C287.99778,2538.64059 287.890653,2538.89948 287.676396,2539.11969 C287.462139,2539.3399 287.200273,2539.45 286.890791,2539.45 L273.106989,2539.45 C272.797507,2539.45 272.535641,2539.34287 272.321384,2539.12862 C272.107127,2538.91436 272,2538.65249 272,2538.34301 L272,2534.36142 C272,2534.19478 272.059515,2534.04896 272.178547,2533.92398 C272.297578,2533.799 272.44339,2533.73651 272.615986,2533.73651 C272.788582,2533.73651 272.934394,2533.799 273.053425,2533.92398 C273.172457,2534.04896 273.231972,2534.19478 273.231972,2534.36142 L273.231972,2537.84308 C273.231972,2537.95021 273.267681,2538.03948 273.3391,2538.1109 C273.410519,2538.18232 273.499791,2538.21803 273.60692,2538.21803 L286.39086,2538.21803 C286.497989,2538.21803 286.587261,2538.18232 286.65868,2538.1109 C286.730099,2538.03948 286.765808,2537.95021 286.765808,2537.84308 L286.765808,2534.36142 C286.765808,2534.19478 286.825323,2534.04896 286.944355,2533.92398 C287.063386,2533.799 287.209198,2533.73651 287.381794,2533.73651 C287.55439,2533.73651 287.700202,2533.80197 287.819233,2533.93291 Z" id="download---anticon"></path>
        </g>
    </g>
</svg>