<?xml version="1.0" encoding="UTF-8"?>
<svg width="17px" height="14px" viewBox="0 0 17 14" version="1.1" xmlns="http://www.w3.org/2000/svg" xmlns:xlink="http://www.w3.org/1999/xlink">
    <!-- Generator: Sketch 49.3 (51167) - http://www.bohemiancoding.com/sketch -->
    <title>email</title>
    <desc>Created with Sketch.</desc>
    <defs></defs>
    <g id="Page-1" stroke="none" stroke-width="1" fill="none" fill-rule="evenodd">
        <g id="Desktop-HD" transform="translate(-926.000000, -2518.000000)" fill="#DC6F6F">
            <path d="M943,2519.92857 L943,2529.64286 C943,2530.70471 942.133285,2531.57143 941.071429,2531.57143 L927.928571,2531.57143 C926.866715,2531.57143 926,2530.70471 926,2529.64286 L926,2519.92857 C926,2518.86671 926.866715,2518 927.928571,2518 L941.071429,2518 C942.133285,2518 943,2518.86671 943,2519.92857 Z M940.857143,2523.91663 C939.319007,2525.10148 938.284407,2525.92006 937.259096,2526.77571 C936.102858,2527.74695 935.43693,2528.14286 934.508929,2528.14286 C933.56307,2528.14286 932.897142,2527.74695 931.742136,2526.77674 C930.717115,2525.92133 929.683967,2525.10383 928.142857,2523.91654 L928.142857,2529.42857 L940.857143,2529.42857 L940.857143,2523.91663 Z M929.263749,2522.07072 C930.428256,2522.98321 931.621935,2523.92699 932.850735,2524.90636 C932.91193,2524.95601 933.323634,2525.30465 933.455883,2525.41113 C933.653017,2525.56986 933.824101,2525.69487 933.981477,2525.79212 C934.207257,2525.93165 934.385486,2526 934.491071,2526 C934.614514,2526 934.792743,2525.93165 935.018523,2525.79212 C935.175899,2525.69487 935.346983,2525.56986 935.544117,2525.41113 C935.676366,2525.30465 936.08807,2524.95601 936.152656,2524.90364 C937.378065,2523.92699 938.571744,2522.98321 939.735999,2522.07092 C940.305684,2521.62393 940.857143,2520.76183 940.857143,2520.25893 C940.857635,2520.20632 940.857635,2520.20632 940.858843,2520.15965 C940.858942,2520.15573 936.62334,2520.15013 928.152037,2520.14286 C928.215567,2520.88054 928.606852,2521.5525 929.263749,2522.07072 Z" id="email"></path>
        </g>
    </g>
</svg>