<?xml version="1.0" encoding="UTF-8"?>
<svg width="84px" height="32px" viewBox="0 0 84 32" version="1.1" xmlns="http://www.w3.org/2000/svg" xmlns:xlink="http://www.w3.org/1999/xlink">
    <!-- Generator: Sketch 49.3 (51167) - http://www.bohemiancoding.com/sketch -->
    <title>Logo</title>
    <desc>Created with Sketch.</desc>
    <defs></defs>
    <g id="Page-1" stroke="none" stroke-width="1" fill="none" fill-rule="evenodd">
        <g id="Desktop-HD" transform="translate(-240.000000, -80.000000)" fill="#273444">
            <path d="M282.00035,105.870001 C276.524402,105.870001 272.084786,101.445788 272.084786,95.9884093 C272.084786,90.5306812 276.524402,86.1064683 282.00035,86.1064683 C287.476298,86.1064683 291.915565,90.5306812 291.915565,95.9884093 C291.915565,101.445788 287.476298,105.870001 282.00035,105.870001 M322.118763,88.4873939 C319.417576,83.4524992 314.088775,80.0237429 307.957675,80.0237429 C302.62607,80.0237429 297.903722,82.6159106 294.984968,86.6026254 C292.068667,82.6026425 287.340713,80 282.00035,80 C273.140035,80 265.957189,87.1581398 265.957189,95.9884093 C265.957189,101.445788 261.518273,105.869652 256.042325,105.869652 C251.568374,105.869652 247.788464,102.915754 246.554886,98.8585087 C246.228011,97.7988066 246.082266,96.6626382 246.140074,95.4838723 C246.387069,90.4653882 250.499461,86.3662437 255.535021,86.1197364 C256.53001,86.0708539 257.49417,86.1654764 258.408229,86.3910341 C258.739308,86.4727377 259.088956,86.3672912 259.329996,86.1263704 L262.598398,82.8666079 C263.096243,82.3701016 262.933331,81.5265298 262.284836,81.2534863 C260.094457,80.3313533 257.654279,79.8809363 255.094983,80.0272345 C247.030309,80.4881264 240.489302,87.0069533 240.027192,95.0446284 C239.850616,98.115146 240.541504,101.013527 241.881237,103.512818 C244.582424,108.547713 249.911225,111.976469 256.042325,111.976469 C261.379185,111.976469 266.106087,109.379064 269.024141,105.385366 C271.940792,109.379064 276.664892,111.976819 282.00035,111.976819 C290.852607,111.976819 298.029848,104.830899 298.04246,96.011803 L298.042811,96.011803 C298.042811,90.5544241 302.481727,86.1305604 307.957675,86.1305604 C312.431626,86.1305604 316.211536,89.0844584 317.445114,93.1417036 C317.772339,94.2014057 317.918084,95.3375741 317.859926,96.51634 C317.612931,101.534824 313.500539,105.633969 308.464979,105.880476 C307.46999,105.929358 306.50583,105.834038 305.591771,105.609178 C305.260692,105.527475 304.911394,105.632921 304.670004,105.873493 L301.401602,109.133604 C300.903757,109.630111 301.066669,110.473683 301.714814,110.746726 C303.905543,111.66851 306.345721,112.118927 308.905017,111.972978 C316.969691,111.512086 323.510698,104.99291 323.972808,96.9555839 C324.149384,93.8850663 323.458496,90.9866849 322.118763,88.4873939" id="Logo"></path>
        </g>
    </g>
</svg>