<?xml version="1.0" encoding="UTF-8"?>
<svg width="38px" height="47px" viewBox="0 0 38 47" version="1.1" xmlns="http://www.w3.org/2000/svg" xmlns:xlink="http://www.w3.org/1999/xlink">
    <!-- Generator: Sketch 49.3 (51167) - http://www.bohemiancoding.com/sketch -->
    <title>overachiever</title>
    <desc>Created with Sketch.</desc>
    <defs></defs>
    <g id="Page-1" stroke="none" stroke-width="1" fill="none" fill-rule="evenodd">
        <g id="overachiever" transform="translate(-1.000000, 0.000000)">
            <polygon id="Path-8" fill="#9ECFEF" points="14.2042772 33.1775779 18.9475013 40.0094835 23.8334783 33.1775779 23.8334783 30.4533145 20.7712805 32.1742601 16.3856746 32.1742601 15.0183001 30.66726"></polygon>
            <path d="M9.83469824,16.8959517 C15.4531958,18.7170855 18.2624445,19.6276524 18.2624445,19.6276524 C18.2624445,19.6276524 21.6035079,18.7170855 28.2856347,16.8959517 L27.5772702,23.5920529 L23.8342951,30.2352088 L19.6846845,32.4266315 L15.4819319,31.6751628 L12.1013071,26.2985603 L9.83469824,19.9008421 L9.83469824,16.8959517 Z" id="Path-10" fill="#FFFFFF"></path>
            <path d="M6.02995422,10.1364325 L9.5143248,12.2192421 L9.5143248,16.5730902 L19.0960265,19.6313273 L28.7220134,16.5730902 C28.3018196,14.2801546 28.3018196,12.8288718 28.7220134,12.2192421 C29.1422072,11.6096123 30.6210523,10.9153424 33.1585485,10.1364325 L31.9205058,8.98247841 L19.0960265,4.54227776 L4.72755142,9.43785043 L6.02995422,10.1364325 Z" id="Path-9" fill="#9ECFEF"></path>
            <g id="download-(2)" transform="translate(0.000000, 3.000000)">
                <g id="Group" transform="translate(0.917826, 0.996924)">
                    <path d="M26.9124066,7.95664274 C26.9124066,7.59572287 28.2248425,7.59572287 28.2248425,7.95664274 C28.2248425,8.62926615 28.241248,9.33470045 28.2494507,10.0401348 C28.3068698,12.9438992 28.3724916,15.9953127 27.3963674,18.7104145 C25.9280797,22.803574 24.1644939,25.6991358 22.2614618,27.3724916 C20.9244178,28.5536839 19.5135491,29.1524828 18.0862751,29.1524828 C16.659001,29.1524828 15.2481324,28.5618866 13.9028856,27.388897 C12.0080562,25.723744 10.2444705,22.8363849 8.76798008,18.7432254 C7.78365314,16.0035155 7.84927494,12.9521019 7.90669401,10.0483375 C7.92309946,9.33470045 7.93950491,8.62926615 7.93130218,7.95664274 C7.93130218,7.59572287 8.22660026,7.30042478 8.58752014,7.30042478 C8.94844002,7.30042478 9.2437381,7.59572287 9.2437381,7.95664274 C9.2437381,8.65387432 9.22733265,9.35930863 9.21912993,10.0729457 C9.16171085,12.861872 9.10429178,15.7902446 10.0065915,18.3002783 C11.4010546,22.1719643 13.0415995,24.8788633 14.7723744,26.4045701 C15.8633368,27.3724916 16.98711,27.8482496 18.0862751,27.8482496 C19.1854402,27.8482496 20.3092134,27.3642889 21.4001758,26.3963674 C23.1309506,24.8624579 24.7714955,22.1555588 26.1659587,18.2674674 C27.0600557,15.7656364 27.0026366,12.8372638 26.9452175,10.0565402 C26.9342806,9.58078219 26.9233436,8.88081637 26.9124066,7.95664274 Z" id="Shape" stroke="#273444" fill="#273444" fill-rule="nonzero"></path>
                    <path d="M2.08385363,41.200641 L34.2339066,41.200641 L32.8533418,35.0838723 L28.6913371,31.001175 L24.6151745,30.000179 L23.2054632,29.2682935 L21.5168394,31.001175 L18.1588801,35.8285302 L13.3642171,29.2682935 C10.0251875,29.7562172 8.10309701,30.3338443 7.59794552,31.001175 C6.84021828,32.002171 3.44841612,35.0838723 3.44841612,35.0838723 C3.44841612,35.0838723 2.99356196,37.1227952 2.08385363,41.200641 Z" id="Path-7" fill="#D2E9F7"></path>
                    <path d="M13.205654,26.527611 C13.2548704,26.1666911 13.5911821,25.9206093 13.9438992,25.9698257 C14.3048191,26.019042 14.5509008,26.3553537 14.5016845,26.7080709 L14.1325619,29.23451 L18.0780724,34.8369709 L22.0235828,29.23451 L21.662663,26.7080709 C21.6134466,26.347151 21.8595283,26.019042 22.2204482,25.9698257 C22.5813681,25.9206093 22.9094771,26.1666911 22.9586934,26.527611 L23.3606269,29.3083346 C23.3852351,29.4641863 23.3442215,29.6364435 23.2457888,29.7758898 L18.6194522,36.3380694 C18.5784386,36.4036912 18.5210195,36.4611103 18.4553977,36.5103266 C18.1600996,36.7153948 17.7499634,36.649773 17.5448953,36.3544749 L12.9185587,29.7840926 C12.820126,29.652849 12.7791123,29.4805918 12.8037205,29.3083346 L13.205654,26.5194082 L13.205654,26.527611 Z" id="Shape" stroke="#273444" fill="#273444" fill-rule="nonzero"></path>
                    <path d="M22.4091109,29.4559836 C22.0727992,29.3329427 21.8923392,28.9556174 22.0153801,28.6193057 C22.138421,28.282994 22.5157463,28.1025341 22.852058,28.2255749 C23.270397,28.3814267 23.9348176,28.6193057 24.5746301,28.8407793 C31.1860261,31.2031639 34.1308042,32.2531126 35.1643474,41.2679068 C35.2053611,41.6288267 34.9510766,41.948733 34.5901567,41.9897466 C34.5655486,41.9897466 34.5409404,41.9979493 34.5163322,41.9979493 L1.65621796,41.9979493 C1.29529808,41.9979493 1,41.7026512 1,41.3417314 C1,41.3007177 1,41.2679068 1.00820272,41.2268932 C2.04174601,32.3105317 5.02753772,31.2277721 12.1557053,28.6439139 C12.5330306,28.5044676 12.9185587,28.3650212 13.3122894,28.2255749 C13.6486011,28.1025341 14.0259265,28.2747913 14.1489673,28.6193057 C14.2720082,28.9556174 14.099751,29.3329427 13.7552366,29.4559836 C13.3533031,29.6036326 12.967775,29.743079 12.5986524,29.8743225 C6.20052732,32.1874908 3.411601,33.2046287 2.39446316,40.6855134 L33.7698843,40.6855134 C32.7527464,33.1554123 30.0294419,32.1874908 24.131683,30.0793907 C23.6723305,29.9153362 23.1883697,29.743079 22.4091109,29.4559836 Z" id="Shape" stroke="#273444" fill="#273444" fill-rule="nonzero"></path>
                    <path d="M5.10956496,5.77471803 L18.0780724,10.2041892 L31.0547825,5.77471803 L18.0780724,1.34524681 L5.10956496,5.77471803 Z M17.8730042,11.5166252 L2.87842391,6.39812509 C2.68976124,6.3325033 2.53390948,6.18485426 2.46828768,5.98798887 C2.35344954,5.64347444 2.53390948,5.27435184 2.87842391,5.1595137 L17.8730042,0.0410136224 C18.0042478,1.69135539e-16 18.1518969,-0.00820272448 18.2913432,0.0410136224 L33.2941263,5.1595137 C33.4827889,5.22513549 33.6386407,5.37278453 33.7042625,5.56964992 C33.8191006,5.91416435 33.6386407,6.28328695 33.2941263,6.39812509 L18.2913432,11.5166252 C18.1600996,11.5576388 18.0124506,11.5658415 17.8730042,11.5166252 Z" id="Shape" stroke="#273444" fill="#273444" fill-rule="nonzero"></path>
                    <path d="M2.29639666,5.90596162 C2.29639666,5.26889937 2.81555237,4.74974366 3.45261462,4.74974366 C4.08967687,4.74974366 4.60883258,5.26889937 4.60883258,5.90596162 L4.60883258,15.3965138 C4.60883258,16.0335761 4.08967687,16.5527318 3.45261462,16.5527318 C2.81555237,16.5527318 2.29639666,16.0335761 2.29639666,15.3965138 L2.29639666,5.90596162 Z" id="Shape" fill="#273444" fill-rule="nonzero"></path>
                    <path d="M4.25171403,14.4622776 L6.20519538,21.0189091 C6.23636795,21.102036 6.25714967,21.2059445 6.25714967,21.2994623 C6.25714967,21.75666 5.88307877,22.1307309 5.42588101,22.1307309 L1.48774575,22.1307309 C1.40461888,22.1307309 1.33188287,22.1203401 1.24875601,22.0995583 C0.812339961,21.9644772 0.562959363,21.5072794 0.687649662,21.0708634 L2.65152187,14.4830593 C2.72425787,14.2232878 2.93207504,13.9946889 3.21262821,13.9115621 C3.64904425,13.7764809 4.11663287,14.0258615 4.24132317,14.4726684 L4.25171403,14.4622776 Z" id="Shape" fill="#273444" fill-rule="nonzero"></path>
                    <polygon id="Path" fill="#D2E9F7" points="4.31405918 20.4681936 3.46200881 17.6107076 2.60995843 20.4681936"></polygon>
                    <path d="M28.0525853,12.8208584 C28.0279771,12.8454665 19.6201846,20.2689322 8.19378937,12.9931156 L8.89922367,11.8939505 C19.4971437,18.6447927 27.1830965,11.8611396 27.199502,11.8365314 L28.0525853,12.8290611 L28.0525853,12.8208584 Z" id="Shape" stroke="#273444" fill="#273444" fill-rule="nonzero"></path>
                </g>
            </g>
            <path d="M30.5224799,0.545061804 C30.0612304,0.663691096 29.688374,0.998499479 29.5249879,1.44076499 L27.4393227,7.53154667 L20.7289218,7.62040043 C20.1043748,7.63311926 19.5581642,8.0392249 19.3730003,8.62852324 C19.1878364,9.21782158 19.4052826,9.85803404 19.912792,10.2177964 L25.2629765,13.9797498 L23.2679924,20.1602451 C23.0960123,20.7346272 23.3037757,21.3540732 23.7889296,21.7134177 C24.2740836,22.0727622 24.9343042,22.0962157 25.4443387,21.7722242 L30.8852043,18.0105574 L36.507432,13.9797498 L32.2454207,1.44162487 C31.9895618,0.749956668 31.2446926,0.362350661 30.5224799,0.545061804 Z" id="Shape" fill="#FFFFFF" fill-rule="nonzero"></path>
            <path d="M30.7497535,4.03113905 C30.4310164,4.11311544 30.1733614,4.34447805 30.0604567,4.65009674 L28.6191997,8.859009 L23.9821121,8.9204096 C23.5505314,8.92919869 23.1730836,9.20982983 23.0451298,9.61705261 C22.917176,10.0242754 23.0674378,10.4666813 23.418142,10.7152879 L27.1152794,13.3149101 L25.7366858,17.5858172 C25.6178424,17.9827324 25.7614131,18.4107881 26.096669,18.6591059 C26.4319249,18.9074237 26.8881571,18.9236308 27.2406061,18.699743 L31.0004069,16.1003187 L34.7602077,18.699743 C35.1126568,18.9236308 35.568889,18.9074237 35.9041449,18.6591059 C36.2394007,18.4107881 36.3829715,17.9827324 36.2641281,17.5858172 L34.8855344,13.3149101 L38.5826719,10.7152879 C38.9328532,10.4665281 39.0827361,10.024437 38.9548427,9.61754124 C38.8269493,9.21064547 38.4499411,8.93013176 38.0187018,8.9210038 L33.3816141,8.8596032 L31.9403571,4.65069094 C31.763551,4.17272753 31.2488242,3.90488019 30.7497535,4.03113905 Z" id="Shape" fill="#273444" fill-rule="nonzero"></path>
            <path d="M31.0104542,8 L31.7624144,10.1664509 C31.8963308,10.5684058 32.2739899,10.8419236 32.7023646,10.8472054 L35.0209084,10.8472054 L33.2036713,12.2089123 C32.8712503,12.4499009 32.7220805,12.8673325 32.8276913,13.2610413 L33.5169881,15.4274922 L31.5744243,14.1277801 C31.2340831,13.8991034 30.7868253,13.8991034 30.4464841,14.1277801 L28.5039203,15.4274922 L29.1932171,13.2610413 C29.2988279,12.8673325 29.1496581,12.4499009 28.8172371,12.2089123 L27,10.8472054 L29.3185438,10.8472054 C29.7469185,10.8419236 30.1245776,10.5684058 30.258494,10.1664509 L31.0104542,8 Z" id="Path" fill="#9ECFEF"></path>
        </g>
    </g>
</svg>