<?xml version="1.0" encoding="UTF-8"?>
<svg width="56px" height="48px" viewBox="0 0 56 48" version="1.1" xmlns="http://www.w3.org/2000/svg" xmlns:xlink="http://www.w3.org/1999/xlink">
    <!-- Generator: Sketch 49.3 (51167) - http://www.bohemiancoding.com/sketch -->
    <title>podium</title>
    <desc>Created with Sketch.</desc>
    <defs></defs>
    <g id="Page-1" stroke="none" stroke-width="1" fill="none" fill-rule="evenodd">
        <g id="podium">
            <path d="M27.178325,0.0311390542 C26.8595878,0.113115442 26.6019329,0.344478045 26.4890282,0.650096739 L25.0477712,4.859009 L20.4106835,4.9204096 C19.9791029,4.92919869 19.601655,5.20982983 19.4737012,5.61705261 C19.3457474,6.02427538 19.4960092,6.46668133 19.8467134,6.71528785 L23.5438508,9.31491013 L22.1652572,13.5858172 C22.0464138,13.9827324 22.1899845,14.4107881 22.5252404,14.6591059 C22.8604963,14.9074237 23.3167285,14.9236308 23.6691775,14.699743 L27.4289784,12.1003187 L31.1887792,14.699743 C31.5412282,14.9236308 31.9974604,14.9074237 32.3327163,14.6591059 C32.6679722,14.4107881 32.8115429,13.9827324 32.6926995,13.5858172 L31.3141059,9.31491013 L35.0112433,6.71528785 C35.3614247,6.46652806 35.5113075,6.024437 35.3834141,5.61754124 C35.2555207,5.21064547 34.8785125,4.93013176 34.4472732,4.9210038 L29.8101855,4.8596032 L28.3689286,0.650690939 C28.1921225,0.172727531 27.6773956,-0.0951198091 27.178325,0.0311390542 Z" id="Shape" fill="#273444" fill-rule="nonzero"></path>
            <path d="M27.4289784,3.99246824 L28.1809385,6.15891917 C28.3148549,6.56087406 28.6925141,6.83439188 29.1208887,6.83967359 L31.4394326,6.83967359 L29.6221955,8.2013805 C29.2897745,8.44236917 29.1406046,8.85980074 29.2462154,9.25350953 L29.9355122,11.4199605 L27.9929485,10.1202484 C27.6526073,9.89157167 27.2053494,9.89157167 26.8650082,10.1202484 L24.9224445,11.4199605 L25.6117413,9.25350953 C25.7173521,8.85980074 25.5681822,8.44236917 25.2357612,8.2013805 L23.4185242,6.83967359 L25.737068,6.83967359 C26.1654426,6.83439188 26.5431018,6.56087406 26.6770182,6.15891917 L27.4289784,3.99246824 Z" id="Path" fill="#9ECFEF"></path>
            <polygon id="Path-6" fill="#9ECFEF" transform="translate(10.350307, 32.891686) scale(-1, 1) translate(-10.350307, -32.891686) " points="2 31 2 34.7833723 18.7006143 34.7833723 14.917242 31"></polygon>
            <polygon id="Path-6" fill="#9ECFEF" points="37.3986114 30.7290064 37.3986114 34.5123787 54.0992257 34.5123787 50.3158534 30.7290064"></polygon>
            <polygon id="Path-4" fill="#9ECFEF" points="19.278446 22.4597005 23.1439464 18.2462827 32.5464593 18.2462827 36.7537041 22.4597005"></polygon>
            <path d="M18.6875,21.726696 C18.2591755,21.8684991 17.9776436,22.2823045 18,22.7372077 L18,33.8528363 L1,33.8528363 C0.44773811,33.8528921 5.51847807e-05,34.3052809 0,34.863348 L0.0625,46.9894883 C0.0625551848,47.5475554 0.51023811,47.9999442 1.0625,48 L55,48 C55.5522619,47.9999442 55.9999448,47.5475554 56,46.9894883 L56,34.863348 C55.9999448,34.3052809 55.5522619,33.8528921 55,33.8528363 L38,33.8528363 L38,22.7372077 C37.9999448,22.1791406 37.5522619,21.7267518 37,21.726696 L19,21.726696 C18.8964769,21.7101489 18.7910231,21.7101489 18.6875,21.726696 Z" id="Shape" fill="#273444" fill-rule="nonzero"></path>
            <path d="M20,23.7477194 L36,23.7477194 L36,34.863348 C36.0000552,35.4214151 36.4477381,35.8738039 37,35.8738597 L54,35.8738597 L54,45.9789766 L2.0625,45.9789766 L2,35.8738597 L19,35.8738597 C19.5522619,35.8738039 19.9999448,35.4214151 20,34.863348 L20,23.7477194 Z" id="Path" fill="#D2E9F7"></path>
            <path d="M4.60623112,29.7258792 C4.46852382,29.7765864 4.3444883,29.8573023 4.24357225,29.9618787 L0.375210926,33.7378713 C0.082844353,33.9587689 -0.054933291,34.3230336 0.0202321946,34.6763852 C0.0953976802,35.0297368 0.370354082,35.3103469 0.72864665,35.3993662 C1.08693922,35.4883855 1.46587508,35.3702377 1.70496013,35.0949631 L5.27110573,31.6138755 L18.4477115,31.6138755 C18.796478,31.6186887 19.1208825,31.4398237 19.2967047,31.1457712 C19.472527,30.8517187 19.472527,30.4880359 19.2967047,30.1939834 C19.1208825,29.8999309 18.796478,29.721066 18.4477115,29.7258792 L4.90844685,29.7258792 C4.80833063,29.7104212 4.70634734,29.7104212 4.60623112,29.7258792 Z" id="Shape" fill="#273444" fill-rule="nonzero"></path>
            <path d="M36.7557252,29.7258792 C36.1945079,29.807341 36.2850651,30.2960212 36.3727553,30.817377 C36.4604455,31.3387328 36.9864889,31.6953373 37.5477061,31.6138755 L50.4613664,31.6138755 L54.2085069,35.0949631 C54.4597264,35.3702377 54.8578946,35.4883855 55.2343719,35.3993662 C55.6108491,35.3103469 55.8997605,35.0297368 55.9787409,34.6763852 C56.0577214,34.3230336 55.912951,33.9587689 55.6057457,33.7378713 L51.5410509,29.9618787 C51.3486164,29.8040753 51.0990306,29.7197631 50.8424315,29.7258792 L37.5477061,29.7258792 C37.4425086,29.7104212 37.3353493,29.7104212 37.2301518,29.7258792 L36.7557252,29.7258792 Z" id="Shape" fill="#273444" fill-rule="nonzero"></path>
            <path d="M22.8779466,17.1544506 C22.7406578,17.2051579 22.6169992,17.2858737 22.5163898,17.3904501 L18.6597849,21.1664427 C18.3683069,21.3873403 18.2309479,21.751605 18.305885,22.1049566 C18.380822,22.4583082 18.6549428,22.7389183 19.0121465,22.8279376 C19.3693502,22.9169569 19.7471344,22.7988092 19.9854929,22.5235345 L23.5408005,19.0424469 L32.4591995,19.0424469 L36.0145071,22.5235345 C36.2528656,22.7988092 36.6306498,22.9169569 36.9878535,22.8279376 C37.3450572,22.7389183 37.619178,22.4583082 37.694115,22.1049566 C37.7690521,21.751605 37.6316931,21.3873403 37.3402151,21.1664427 L33.4836102,17.3904501 C33.3010271,17.2326467 33.0642188,17.1483346 32.8207562,17.1544506 L23.1792438,17.1544506 C23.0794319,17.1389927 22.9777585,17.1389927 22.8779466,17.1544506 Z" id="Shape" fill="#273444" fill-rule="nonzero"></path>
            <polygon id="Shape" fill="#273444" fill-rule="nonzero" points="6.85714286 37.7142857 6.85714286 43.4285714 9.14285714 43.4285714 9.14285714 37.7142857"></polygon>
            <polygon id="Shape" fill="#273444" fill-rule="nonzero" points="10.2857143 37.7142857 10.2857143 43.4285714 12.5714286 43.4285714 12.5714286 37.7142857"></polygon>
            <polygon id="Shape" fill="#273444" fill-rule="nonzero" points="26.2857143 27.4285714 26.2857143 33.1428571 28.5714286 33.1428571 28.5714286 27.4285714"></polygon>
            <polygon id="Shape" fill="#273444" fill-rule="nonzero" points="41 37.7142857 41 43.4285714 43.2857143 43.4285714 43.2857143 37.7142857"></polygon>
            <polygon id="Shape" fill="#273444" fill-rule="nonzero" points="44.5714286 37.7142857 44.5714286 43.4285714 46.8571429 43.4285714 46.8571429 37.7142857"></polygon>
            <polygon id="Shape" fill="#273444" fill-rule="nonzero" points="48 37.7142857 48 43.4285714 50.2857143 43.4285714 50.2857143 37.7142857"></polygon>
        </g>
    </g>
</svg>