<?xml version="1.0" encoding="UTF-8"?>
<svg width="40px" height="61px" viewBox="0 0 40 61" version="1.1" xmlns="http://www.w3.org/2000/svg" xmlns:xlink="http://www.w3.org/1999/xlink">
    <!-- Generator: Sketch 49.3 (51167) - http://www.bohemiancoding.com/sketch -->
    <title>prototyping</title>
    <desc>Created with Sketch.</desc>
    <defs></defs>
    <g id="Page-1" stroke="none" stroke-width="1" fill="none" fill-rule="evenodd">
        <g id="prototyping" transform="translate(0.000000, 1.000000)">
            <path d="M38.3636364,30.9090909 L37.0909091,29.8787879 C37.030303,29.8181818 37.030303,29.8181818 36.969697,29.7575758 L38.6666667,27.6969697 C39.7575758,26.4242424 39.5757576,24.5454545 38.3030303,23.4545455 L37.030303,22.4242424 C36.6666667,22.0606061 36.1818182,21.8787879 35.6969697,21.7575758 L35.6969697,2.96969697 C35.6969697,1.39393939 34.3636364,0.0606060606 32.7878788,0.0606060606 L11.2727273,0.0606060606 C9.6969697,0.0606060606 8.36363636,1.33333333 8.36363636,2.96969697 L8.36363636,16.3636364 C7.87878788,15.8787879 7.21212121,15.3939394 6.36363636,15.030303 C4.84848485,14.4242424 2.84848485,14.8484848 1.63636364,16.0606061 C0.606060606,17.0909091 0.303030303,18.4848485 0.848484848,19.8787879 C1.15151515,20.6666667 1.45454545,21.5757576 1.6969697,22.4848485 C2.66666667,26.5454545 2.90909091,30.969697 2.24242424,34.4242424 L2.06060606,35.3939394 C1.15151515,40.1212121 0.363636364,44.6060606 1.81818182,48 C3.09090909,50.969697 4.72727273,52.4848485 6.12121212,53.7575758 L6.24242424,53.8787879 C6.54545455,54.1212121 6.60606061,54.5454545 6.48484848,54.9090909 L5.64171668,57.0936325 C5.44285699,57.6088599 5.69932368,58.1877418 6.21455107,58.3866015 C6.30919656,58.4231314 6.40884987,58.4450459 6.51008889,58.4515926 C18.7023939,59.2400176 24.8960007,59.6147393 25.0909091,59.5757576 C26.0606061,59.4545455 27.5151515,58.969697 29.030303,57.3333333 C30.969697,55.3333333 32.7272727,51.7575758 33.3939394,50.2424242 C33.6363636,50.3030303 33.9393939,50.3636364 34.1818182,50.3636364 C35.030303,50.3636364 35.8787879,50 36.4848485,49.3333333 L37.8181818,47.7575758 C38.3636364,47.1515152 38.6060606,46.3636364 38.5454545,45.5757576 C38.4848485,44.7878788 38.1212121,44.0606061 37.5151515,43.5151515 L37.3333333,43.6363636 L38.7272727,42 C39.8181818,40.7272727 39.6363636,38.8484848 38.3636364,37.7575758 L37.2727273,36.8484848 L38.7272727,35.1515152 C39.8181818,33.8787879 39.6363636,32 38.3636364,30.9090909 Z" id="Shape" stroke="#273444" stroke-width="0.5" fill="#273444" fill-rule="nonzero"></path>
            <path d="M37.2121212,24.969697 C37.6969697,25.3939394 37.7575758,26.1212121 37.3333333,26.6060606 L34.9090909,29.4545455 L34.8484848,29.5151515 C34.7272727,29.6363636 34.6060606,29.6969697 34.4848485,29.7575758 C34.4242424,29.7575758 34.4242424,29.7575758 34.3636364,29.8181818 L33.8787879,29.6969697 C33.6969697,29.6363636 33.4545455,29.5757576 33.3333333,29.4545455 L32.0606061,28.4242424 C31.8181818,28.2424242 31.6969697,27.9393939 31.6363636,27.6363636 C31.6363636,27.3939394 31.7575758,27.0909091 31.8787879,26.9090909 L34.3030303,24.0606061 C34.4848485,23.8181818 34.7272727,23.6969697 35.030303,23.6363636 C35.0909091,23.6363636 35.1515152,23.6363636 35.2121212,23.6363636 C35.5151515,23.6363636 35.7575758,23.7575758 36,23.9393939 L37.2121212,24.969697 Z" id="Path" fill="#FFFFFF"></path>
            <path d="M27.7575758,56.3636364 C26.6060606,57.5757576 25.5151515,57.9393939 24.8484848,58.0606061 C24.2020202,58.1414141 18.4242424,57.8787879 7.51515152,57.2727273 L8.12121212,55.7575758 C8.54545455,54.7272727 8.24242424,53.5151515 7.39393939,52.7272727 L7.27272727,52.6060606 C5.93939394,51.3333333 4.54545455,50.0606061 3.39393939,47.4545455 C2.18181818,44.5454545 2.90909091,40.3636364 3.75757576,35.8787879 L3.93939394,34.9090909 C4.60606061,31.2727273 4.42424242,26.4848485 3.33333333,22.2424242 C3.09090909,21.2121212 2.72727273,20.3030303 2.42424242,19.4545455 C2.12121212,18.7272727 2.3030303,18.1212121 2.78787879,17.5757576 C3.51515152,16.9090909 4.72727273,16.6060606 5.57575758,16.9090909 C8,17.9393939 8.24242424,20.3030303 8.3030303,20.5454545 L8.3030303,47.4545455 C8.3030303,49.030303 9.57575758,50.3636364 11.2121212,50.3636364 L31.5151515,50.3636364 C30.7878788,51.8181818 29.2727273,54.7272727 27.7575758,56.3636364 Z" id="Path" stroke="#273444" stroke-width="0.5" fill="#FFFFFF"></path>
            <path d="M36.4242424,46.7878788 L35.0909091,48.3636364 C34.8484848,48.6666667 34.4242424,48.7878788 34.0606061,48.7878788 L33.6363636,48.4848485 C33.5757576,48.4242424 33.5151515,48.4242424 33.4545455,48.3636364 L33.1515152,48.1212121 C32.9090909,47.9393939 32.7878788,47.6363636 32.7272727,47.3333333 C32.7272727,47.0909091 32.8484848,46.7878788 33.030303,46.6060606 L33.6969697,45.8787879 C33.8181818,45.8787879 33.9393939,45.8787879 34.0606061,45.8787879 C34.0606061,45.8787879 34.0606061,45.8787879 34.1212121,45.8787879 C34.1818182,45.8787879 34.2424242,45.8787879 34.3030303,45.8787879 L34.4242424,45.8787879 C34.6060606,45.8787879 34.7878788,45.8181818 34.9090909,45.7575758 C34.969697,45.7575758 35.030303,45.6969697 35.030303,45.6969697 C35.1515152,45.6969697 35.2121212,45.6363636 35.2727273,45.5757576 C35.3333333,45.5757576 35.3939394,45.5151515 35.4545455,45.5151515 C35.5151515,45.5151515 35.5757576,45.4545455 35.6363636,45.4545455 C35.7575758,45.3939394 35.8787879,45.2727273 36,45.2121212 C36.0606061,45.2121212 36.0606061,45.1515152 36.1212121,45.1515152 C36.1818182,45.0909091 36.1818182,45.0909091 36.2424242,45.030303 L36.4242424,45.1515152 C36.6666667,45.3333333 36.7878788,45.6363636 36.8484848,45.9393939 C36.7272727,46.2424242 36.6666667,46.5454545 36.4242424,46.7878788 Z" id="Path" fill="#FFFFFF"></path>
            <path d="M37.3939394,40.7878788 L35.7575758,42.7272727 L34.969697,43.6363636 C34.9090909,43.7575758 34.7878788,43.8181818 34.6666667,43.8787879 C34.6666667,43.8787879 34.6060606,43.8787879 34.6060606,43.9393939 L34.5454545,43.9393939 C34.5454545,43.9393939 34.4848485,43.9393939 34.4242424,44 C34.3636364,44 34.3030303,44.0606061 34.2424242,44.0606061 L33.6363636,43.8181818 C33.5151515,43.7575758 33.3939394,43.6969697 33.3333333,43.6363636 L32.0606061,42.6060606 C31.8181818,42.4242424 31.6969697,42.1212121 31.6363636,41.8181818 C31.6363636,41.5757576 31.7575758,41.2727273 31.8787879,41.0909091 L33.5757576,39.0909091 C33.6969697,39.0909091 33.8181818,39.0909091 33.9393939,39.0909091 C33.9393939,39.0909091 33.9393939,39.0909091 34,39.0909091 C34.0606061,39.0909091 34.1212121,39.0909091 34.1818182,39.0909091 C34.2424242,39.0909091 34.3030303,39.0909091 34.3030303,39.0909091 C34.4848485,39.0909091 34.6060606,39.030303 34.7272727,39.030303 C34.7878788,39.030303 34.7878788,39.030303 34.8484848,39.030303 C34.9090909,39.030303 34.969697,38.969697 35.030303,38.969697 C35.0909091,38.969697 35.1515152,38.9090909 35.1515152,38.9090909 C35.2121212,38.9090909 35.2727273,38.8484848 35.2727273,38.8484848 C35.4545455,38.7878788 35.5757576,38.6666667 35.7575758,38.5454545 C35.8181818,38.4848485 35.8181818,38.4848485 35.8787879,38.4242424 C35.9393939,38.3636364 36,38.3636364 36.0606061,38.3030303 L37.1515152,39.2121212 C37.7575758,39.5757576 37.8181818,40.3030303 37.3939394,40.7878788 Z" id="Path" fill="#FFFFFF"></path>
            <path d="M37.3939394,34 L35.7575758,35.9393939 L34.969697,36.8484848 C34.8484848,36.969697 34.7272727,37.030303 34.6060606,37.1515152 L34.3636364,37.2121212 C34.3030303,37.2121212 34.2424242,37.2121212 34.1818182,37.2121212 L33.6363636,37.030303 C33.5151515,36.969697 33.3939394,36.9090909 33.3333333,36.8484848 L32.0606061,35.8181818 C31.8181818,35.6363636 31.6969697,35.3333333 31.6363636,35.030303 C31.6363636,34.7878788 31.7575758,34.4848485 31.8787879,34.3030303 L34.0606061,31.6969697 C34.1818182,31.6969697 34.3030303,31.6969697 34.4242424,31.6363636 C34.4848485,31.6363636 34.5454545,31.6363636 34.6060606,31.6363636 C34.7878788,31.5757576 34.969697,31.5151515 35.2121212,31.4545455 C35.3939394,31.3939394 35.5757576,31.2727273 35.6969697,31.1515152 C35.7575758,31.2121212 35.8787879,31.2121212 35.9393939,31.2727273 L37.2121212,32.3030303 C37.7575758,32.7878788 37.8181818,33.5151515 37.3939394,34 Z" id="Path" fill="#FFFFFF"></path>
            <path d="M10.1818182,43.5757576 L30.4242424,43.5757576 C30.5454545,43.7575758 30.7272727,43.9393939 30.9090909,44.1212121 L31.8787879,44.969697 L31.5757576,45.3333333 C31.030303,45.9393939 30.8484848,46.6666667 30.8484848,47.4545455 C30.8484848,47.5151515 30.8484848,47.5757576 30.8484848,47.6363636 C30.8484848,47.9393939 30.969697,48.1818182 31.030303,48.4242424 L11.2727273,48.4242424 C10.6666667,48.4242424 10.1818182,47.9393939 10.1818182,47.3333333 L10.1818182,43.5757576 Z" id="Path" fill="#9ECFEF"></path>
            <path d="M11.2727273,2 L32.9090909,2 C33.5151515,2 34,2.48484848 34,3.09090909 L34,5.27272727 L10.1818182,5.27272727 L10.1818182,3.09090909 C10.1818182,2.48484848 10.6666667,2 11.2727273,2 Z" id="Path" fill="#9ECFEF"></path>
            <path d="M34,21.9393939 C33.5757576,22.1212121 33.2727273,22.3636364 32.969697,22.7272727 L30.5454545,25.5757576 C30,26.1818182 29.7575758,26.969697 29.8787879,27.7575758 C29.9393939,28.5454545 30.2424242,29.3333333 30.9090909,29.9393939 L32.1818182,30.969697 L32.2424242,31.030303 L30.6060606,32.969697 C30.0606061,33.5757576 29.8181818,34.4242424 29.9393939,35.1515152 C30,35.9393939 30.3030303,36.7272727 30.969697,37.3333333 L31.9393939,38.1818182 L30.6060606,39.7575758 C30.1212121,40.3636364 29.8787879,41.030303 29.9393939,41.7575758 L10.1818182,41.7575758 L10.1818182,7.03030303 L34,7.03030303 L34,21.9393939 Z" id="Path" fill="#D2E9F7"></path>
            <path d="M22,44.1818182 C21.1515152,44.1818182 20.4848485,44.8484848 20.4848485,45.6969697 C20.4848485,46.5454545 21.1515152,47.2121212 22,47.2121212 C22.8484848,47.2121212 23.5151515,46.5454545 23.5151515,45.6969697 C23.5151515,44.8484848 22.8484848,44.1818182 22,44.1818182 Z" id="Shape" fill="#273444" fill-rule="nonzero"></path>
        </g>
    </g>
</svg>